# xmcd CD database file
#
# Track frame offsets:
#	150
#	13677
#	29989
#	46222
#	73532
#	126897
#	146577
#	168782
#	185727
#	208110
#	230770
#	246797
#	271250
#	290470
#
# Disc length: 4119 seconds
#
# Revision: 0
# Processed by: cddbd v1.5.2PL0 Copyright (c) Steve Scherf et al.
# Submitted via: CDex 1.70beta2
#
DISCID=d610150e
DTITLE=Ben Harper - Fight For Your Mind
DYEAR=1900
DGENRE=Blues
TTITLE0=Oppression
TTITLE1=Ground On Down
TTITLE2=Another Lonely Day
TTITLE3=Please Me Like You Want To
TTITLE4=Gold To Me
TTITLE5=Burn One Down
TTITLE6=Excuse Me Mr.
TTITLE7=People Lead
TTITLE8=Fight For Your Mind
TTITLE9=Give A Man A Home
TTITLE10=By My Side
TTITLE11=Power Of The Gospel
TTITLE12=God Fearing Man
TTITLE13=One Road To Freedom
EXTD=
EXTT0=
EXTT1=
EXTT2=
EXTT3=
EXTT4=
EXTT5=
EXTT6=
EXTT7=
EXTT8=
EXTT9=
EXTT10=
EXTT11=
EXTT12=
EXTT13=
PLAYORDER=
